<svg width="24" height="24" viewBox="0 0 24.0104 20.0402" fill="none" xmlns="http://www.w3.org/2000/svg" aria-hidden="true">
  <path fill-rule="evenodd" clip-rule="evenodd" d="M23.9272 15.0166C23.0664 16.5119 18.0682 20.0402 12.0052 20.0402C5.94215 20.0402 0.94405 16.5119 0.0832748 15.0166C0.0203248 14.9073 0 14.7825 0 14.6563V11.9944C0 11.8841 0.0170497 11.7744 0.0578747 11.6719C0.4301 10.7372 1.40495 9.37953 2.66302 9.01525C2.82982 8.58708 3.07687 7.96112 3.30737 7.49907C3.26877 7.14555 3.2552 6.78093 3.2552 6.41253C3.2552 5.08158 3.53732 3.91413 4.3874 3.04475C4.78445 2.6387 5.2771 2.32722 5.86135 2.0931C7.26062 0.956325 9.2532 0 11.9836 0C14.714 0 16.7498 0.956325 18.149 2.0931C18.7333 2.32722 19.2259 2.6387 19.623 3.04475C20.4731 3.91413 20.7552 5.08158 20.7552 6.41253C20.7552 6.78093 20.7416 7.14555 20.703 7.49907C20.9335 7.96112 21.1804 8.58708 21.3474 9.01525C22.6054 9.37953 23.5802 10.7372 23.9524 11.6719C23.9934 11.7744 24.0104 11.8841 24.0104 11.9944V14.6563C24.0104 14.7825 23.9899 14.9073 23.9272 15.0166ZM12.8184 6.08988C12.7759 5.75835 12.7556 5.46148 12.7551 5.19623V5.17525C12.7564 4.40578 12.9246 3.9051 13.1933 3.59758C13.5345 3.2071 14.2397 2.90793 15.7259 3.06878C17.2317 3.23173 18.0733 3.60545 18.5505 4.09345C19.0125 4.56592 19.2552 5.27278 19.2552 6.41253C19.2552 7.6235 19.0806 8.33892 18.6969 8.77415C18.3321 9.188 17.6136 9.52472 16.0398 9.52472C14.83 9.52472 14.1383 9.13125 13.6961 8.58705C13.2213 8.00272 12.9541 7.14668 12.8184 6.08988ZM11.1919 6.08988C11.2345 5.75833 11.2547 5.46148 11.2553 5.19623V5.17525C11.254 4.40578 11.0858 3.90508 10.8171 3.59758C10.4759 3.2071 9.77072 2.90793 8.28447 3.06878C6.77872 3.23173 5.93708 3.60545 5.4599 4.09345C4.99793 4.5659 4.75522 5.27278 4.75522 6.41253C4.75522 7.6235 4.92975 8.33892 5.31345 8.77415C5.67832 9.188 6.39682 9.52472 7.97055 9.52472C9.18035 9.52472 9.87205 9.13125 10.3143 8.58705C10.7891 8.0027 11.0563 7.14668 11.1919 6.08988ZM12.1774 9.0243C12.2348 9.0243 12.12 9.0246 12.1774 9.0243C12.12 9.0243 11.8904 9.0246 11.833 9.0243C11.7271 9.2016 11.6094 9.37177 11.4783 9.53302C10.7087 10.4802 9.55975 11.0247 7.97052 11.0247C6.24557 11.0247 4.98142 10.6657 4.1883 9.76615C4.1432 9.715 4.10285 9.66145 4.10285 9.66145L4.0052 9.76615V16.3503C5.44 17.13 8.5196 18.5293 12.0052 18.5293C15.4908 18.5293 18.5704 17.13 20.0052 16.3503V9.76615L19.9075 9.66145C19.9075 9.66145 19.8745 9.70672 19.8221 9.76615C19.029 10.6657 17.7648 11.0247 16.0399 11.0247C14.4506 11.0247 13.3017 10.4802 12.532 9.53302C12.401 9.37177 12.2833 9.2016 12.1774 9.0243Z" fill="#171717"/>
  <path fill-rule="evenodd" clip-rule="evenodd" d="M14.5052 12.2747C15.0575 12.2747 15.5052 12.7224 15.5052 13.2747V15.2747C15.5052 15.827 15.0575 16.2747 14.5052 16.2747C13.9529 16.2747 13.5052 15.827 13.5052 15.2747V13.2747C13.5052 12.7224 13.9529 12.2747 14.5052 12.2747Z" fill="#171717"/>
  <path fill-rule="evenodd" clip-rule="evenodd" d="M9.50519 12.2747C10.0575 12.2747 10.5052 12.7224 10.5052 13.2747V15.2747C10.5052 15.827 10.0575 16.2747 9.50519 16.2747C8.95291 16.2747 8.50519 15.827 8.50519 15.2747V13.2747C8.50519 12.7224 8.95291 12.2747 9.50519 12.2747Z" fill="#171717"/>
</svg>
